<svg width="21" height="20" viewBox="0 0 21 20" fill="none" xmlns="http://www.w3.org/2000/svg">
<path d="M19.16 2.61C18.0983 1.548 16.6907 0.902323 15.1932 0.790378C13.6957 0.678433 12.2078 1.10766 11 2C9.72766 1.05363 8.14399 0.624508 6.56792 0.799034C4.99185 0.97356 3.54044 1.73877 2.50597 2.94058C1.47151 4.14239 0.930823 5.69152 0.992802 7.27601C1.05478 8.8605 1.71482 10.3627 2.84 11.48L10.29 18.93C10.383 19.0237 10.4936 19.0981 10.6154 19.1489C10.7373 19.1997 10.868 19.2258 11 19.2258C11.132 19.2258 11.2627 19.1997 11.3846 19.1489C11.5064 19.0981 11.617 19.0237 11.71 18.93L19.16 11.48C19.7427 10.8977 20.2049 10.2063 20.5202 9.44536C20.8356 8.68439 20.9979 7.86873 20.9979 7.045C20.9979 6.22127 20.8356 5.40561 20.5202 4.64463C20.2049 3.88365 19.7427 3.19227 19.16 2.61ZM17.75 10.07L11 16.81L4.25 10.07C3.65518 9.4727 3.24998 8.71304 3.08523 7.88634C2.92049 7.05963 3.00353 6.20268 3.32395 5.42299C3.64437 4.6433 4.1879 3.97559 4.88635 3.50362C5.58479 3.03165 6.40706 2.77644 7.25 2.77C8.37611 2.77276 9.4551 3.22233 10.25 4.02C10.343 4.11373 10.4536 4.18812 10.5754 4.23889C10.6973 4.28966 10.828 4.3158 10.96 4.3158C11.092 4.3158 11.2227 4.28966 11.3446 4.23889C11.4664 4.18812 11.577 4.11373 11.67 4.02C12.4883 3.31088 13.5455 2.93914 14.6275 2.98002C15.7096 3.0209 16.7357 3.47134 17.4982 4.24019C18.2607 5.00903 18.7026 6.03884 18.7345 7.12119C18.7664 8.20354 18.3859 9.25759 17.67 10.07H17.75Z" fill="#FF7777"/>
</svg>
